<svg version="1.2" xmlns="http://www.w3.org/2000/svg" viewBox="0 0 1920 1080" width="1067" height="600">
	<title>9954266</title>
	<defs>
		<clipPath clipPathUnits="userSpaceOnUse" id="cp1">
			<path d="m1920 1080h-1920v-1080h1920z"/>
		</clipPath>
	</defs>
	<style>
		tspan { white-space:pre } 
		.s0 { fill: #0076ed } 
		.s1 { fill: #0087ff } 
		.s2 { fill: #006ae3 } 
		.s3 { fill: #0050bf } 
		.s4 { fill: #01a7ff } 
		.s5 { opacity: .3;mix-blend-mode: multiply;fill: #006ae3 } 
		.s6 { fill: none;stroke: #ffffff;stroke-linecap: round;stroke-linejoin: round;stroke-width: 9.9 } 
		.s7 { fill: #444444 } 
		.s8 { fill: #6d6d6d } 
		.s9 { fill: #ffe600 } 
		.s10 { fill: #e8a49c } 
		.s11 { fill: #6790ba } 
		.s12 { fill: #65b202 } 
		.s13 { fill: #89dd28 } 
		.s14 { fill: #c17974 } 
		.s15 { fill: none;stroke: #c17974;stroke-linecap: round;stroke-linejoin: round;stroke-width: 3.3 } 
		.s16 { fill: none;stroke: #c17974;stroke-linecap: round;stroke-linejoin: round;stroke-width: 2.2 } 
		.s17 { fill: none;stroke: #65b202;stroke-linecap: round;stroke-linejoin: round;stroke-width: 3.3 } 
		.s18 { fill: #ea7191 } 
	</style>
	<g id="OBJECTS">
		<g id="&lt;Clip Group&gt;">
			<g id="&lt;Group&gt;">
				<path id="&lt;Path&gt;" class="s0" d="m1210.9 860.4c0 0-17.9-9.5-44.3-36.3-37.6-37.9-92.5-110.6-138.6-240.3q-1.8-5.2-3.6-10.4c0 0-775.1-203.4-1055.4-546.9v720.4c451.8 85.9 1170.7 222.4 1166.4 219.6-6.2-4 75.5-106.1 75.5-106.1z"/>
				<path id="&lt;Path&gt;" class="s1" d="m2023.8 942c0 0-1370.5 95.7-2105.9-201.3l82.1-231.7c0 0 95.8 48.4 249.8 108q9.6 3.8 19.5 7.5c191.3 72.9 464.8 159.7 755.1 195.5q7.1 0.9 14.2 1.8c39.4 4.6 79.1 8.2 119 10.8 203.6 13 363.3 12.2 485.2 5.5q8.4-0.5 16.5-1c220.9-13.4 311.4-46 311.4-46z"/>
				<path id="&lt;Path&gt;" class="s2" d="m269.3 624.5l-11.3 187.1h-47.3l39.1-194.6q9.6 3.8 19.5 7.5z"/>
				<path id="&lt;Path&gt;" class="s2" d="m1045.4 924.2h-21v-104.2q7.1 0.9 14.2 1.7z"/>
				<path id="&lt;Path&gt;" class="s2" d="m1677.6 946.1h-22.6l-12.2-108q8.4-0.5 16.5-1z"/>
				<path id="&lt;Path&gt;" class="s2" d="m1954.4 924.2v171h-1985.4v-386.9c124.8 44.8 492.4 156.4 1153.9 200.7q6.3 0.4 12.5 0.8c235.4 15.3 507.6 22.1 819 14.4z"/>
				<path id="&lt;Path&gt;" class="s3" d="m1954.4 1070.6v24.6h-1985.4v-88c104.8 14.1 293.8 29.8 633.4 42.1 47 1.7 96.9 3.3 149.9 4.9 295.3 8.6 685.7 14.9 1202.1 16.4z"/>
				<path id="&lt;Path&gt;" class="s1" d="m1166.6 824.1l-41.5-4.1c-49-52.7-118.5-242.1-118.5-242.1l21.4 5.9c46.1 129.7 101.1 202.4 138.6 240.3z"/>
				<path id="&lt;Path&gt;" class="s1" d="m778.7 506.9c0 0 23.7 185.9 74.7 267.6l-48.2-11.5c0 0-42.3-135.8-42.3-265.2z"/>
				<path id="&lt;Path&gt;" class="s1" d="m523.3 400.9c0 0-12.1 177.5 17.6 298.5l-59.8-19.9c0 0-3.5-196.5 16.9-286.7z"/>
				<path id="&lt;Path&gt;" class="s1" d="m172.1 573.4c0 0-1.5-128.9 55.6-322.9l-28.1-22.1c0 0-59 173.2-77.4 321.9z"/>
				<path id="&lt;Path&gt;" class="s4" d="m1847.4 946.9q82.1-1.4 168.2-4v-3.8c-52.5 2-109.9 3.8-171.4 5q-9.3 0.2-18.8 0.4c-208.5 3.9-461.7 2-729-14.8q-11.9-0.8-24-1.6c-270.6-17.9-554.6-51.4-820.2-109.9q-11.7-2.6-23.4-5.2c-117.5-26.7-231.2-58.3-338.4-95.8l0.3 21.3c0 0 74 33 242.6 72.9-78.2-2.2-147.2-6.6-207.2-12v17.3c95.4 4.4 178.9 4.9 246.5 3.7 187.2 41.8 475.3 88.7 886.4 112.6-95.4 33.8-250.1 80.6-456.6 116.3-118.5 20.5-253.9 37.3-405.1 45.9h409.6c48.1-12.9 97.1-26.7 145.4-41 124.1-36.9 244-77.8 333.9-119.7 213.5 11.7 459.3 17.2 740.6 12.7 20.7 40.5 56.3 117.5 77 205.7h147.1c-10.7 0-114.2-127.9-203.5-206z"/>
				<path id="&lt;Path&gt;" class="s5" d="m-92.3 893c0 0 418.7 114.4 2089.6 147.1v138.9l-2130.4 30.6z"/>
			</g>
			<path id="&lt;Path&gt;" class="s3" d="m2961.3 1128.6v21.4c8.8-7.4 9.4-14.6 0-21.4z"/>
			<g id="&lt;Clip Group&gt;" clip-path="url(#cp1)">
			</g>
			<g id="&lt;Group&gt;">
				<path id="&lt;Path&gt;" class="s0" d="m-170.6 1352.4c0 0 265.5 58.2 740.2 76.8 474.6 18.5 647.2-40.9 647.2-40.9v536.3h-1419.2z"/>
				<path id="&lt;Path&gt;" class="s1" d="m1309.8 1778.3l-15.8 179.8-1464.6-41.2 22.7-200.1c0 0 117-7.1 290.9-11.2q10.3-0.3 20.8-0.5c211.6-4.6 500-4.3 764.8 18q9 0.7 17.9 1.5c131.7 11.6 257 28.8 363.3 53.7z"/>
				<path id="&lt;Path&gt;" class="s2" d="m163.8 1705.1l-19.1 191.8-47.5-4.8 45.8-186.5q10.3-0.3 20.8-0.5z"/>
				<path id="&lt;Path&gt;" class="s2" d="m946.5 1724.6l-20.8 208.3-47.4-4.7 50.3-205.1q9 0.7 17.9 1.5z"/>
				<path id="&lt;Path&gt;" class="s2" d="m1260.8 2112.7l-1236.6 17.2-98 1.4-223.1 3.1 79.5-264.4c0 0 264.4-24.8 742.2-12.1q18.9 0.5 38.1 1.1c190.2 5.7 412.5 17.3 663.9 38.6z"/>
				<path id="&lt;Path&gt;" class="s4" d="m562.9 1859c-301.7 92.8-473.5 216.6-538.7 270.9-20.8 17.3-30.8 27.5-30.8 27.5h-97.3q14.4-13.3 30.1-26.1c178.9-146 471.2-238.1 598.6-273.4q18.9 0.5 38.1 1.1z"/>
				<path id="&lt;Path&gt;" class="s3" d="m-337.8 2021.3c0 0 992.3-40.8 1648.6 61.5l20.4 74.6-1714.4-2.1z"/>
				<path id="&lt;Path&gt;" class="s5" d="m-321.9 1960.9c0 0 1232.5-27.1 1616.8 89.4l24.1 62.4-1715.3-29.9z"/>
				<path id="&lt;Path&gt;" class="s1" d="m76.9 1415.9l-18.2 263.4h38.5l-12.4-263.4z"/>
				<path id="&lt;Path&gt;" class="s1" d="m993.1 1714.5l78.4-284.9h14.7l-62.4 293.5z"/>
				<path id="&lt;Path&gt;" class="s1" d="m562.9 1687.4l18.1-251h-11.4l-31.8 253.2z"/>
			</g>
		</g>
		<g id="&lt;Clip Group&gt;">
			<path id="&lt;Path&gt;" class="s3" d="m2961.3 1128.6v21.4c8.8-7.4 9.4-14.6 0-21.4z"/>
			<g id="&lt;Group&gt;">
				<path id="&lt;Path&gt;" class="s0" d="m-170.6 1352.4c0 0 265.5 58.2 740.2 76.8 474.6 18.5 647.2-40.9 647.2-40.9v536.3h-1419.2z"/>
				<path id="&lt;Path&gt;" class="s1" d="m1309.8 1778.3l-15.8 179.8-1464.6-41.2 22.7-200.1c0 0 117-7.1 290.9-11.2q10.3-0.3 20.8-0.5c211.6-4.6 500-4.3 764.8 18q9 0.7 17.9 1.5c131.7 11.6 257 28.8 363.3 53.7z"/>
				<path id="&lt;Path&gt;" class="s2" d="m163.8 1705.1l-19.1 191.8-47.5-4.8 45.8-186.5q10.3-0.3 20.8-0.5z"/>
				<path id="&lt;Path&gt;" class="s2" d="m946.5 1724.6l-20.8 208.3-47.4-4.7 50.3-205.1q9 0.7 17.9 1.5z"/>
				<path id="&lt;Path&gt;" class="s2" d="m1260.8 2112.7l-1236.6 17.2-98 1.4-223.1 3.1 79.5-264.4c0 0 264.4-24.8 742.2-12.1q18.9 0.5 38.1 1.1c190.2 5.7 412.5 17.3 663.9 38.6z"/>
				<path id="&lt;Path&gt;" class="s4" d="m562.9 1859c-301.7 92.8-473.5 216.6-538.7 270.9-20.8 17.3-30.8 27.5-30.8 27.5h-97.3q14.4-13.3 30.1-26.1c178.9-146 471.2-238.1 598.6-273.4q18.9 0.5 38.1 1.1z"/>
				<path id="&lt;Path&gt;" class="s3" d="m-337.8 2021.3c0 0 992.3-40.8 1648.6 61.5l20.4 74.6-1714.4-2.1z"/>
				<path id="&lt;Path&gt;" class="s5" d="m-321.9 1960.9c0 0 1232.5-27.1 1616.8 89.4l24.1 62.4-1715.3-29.9z"/>
				<path id="&lt;Path&gt;" class="s1" d="m76.9 1415.9l-18.2 263.4h38.5l-12.4-263.4z"/>
				<path id="&lt;Path&gt;" class="s1" d="m993.1 1714.5l78.4-284.9h14.7l-62.4 293.5z"/>
				<path id="&lt;Path&gt;" class="s1" d="m562.9 1687.4l18.1-251h-11.4l-31.8 253.2z"/>
			</g>
			<g id="&lt;Group&gt;">
				<path id="&lt;Path&gt;" class="s6" d="m470 305.3c0 0 3.5 2.2 9.8 5.8"/>
				<path id="&lt;Path&gt;" class="s6" d="m535.2 342c20 10.5 42.6 21.9 65.5 32.4"/>
				<path id="&lt;Path&gt;" class="s6" d="m626.2 385.5c38.3 15.9 75 27.2 100.5 25.8"/>
				<path id="&lt;Path&gt;" class="s6" d="m425.3 429.7c43.4 17.2 94.9 34.8 148.8 47.2"/>
				<path id="&lt;Path&gt;" class="s6" d="m598.8 482.1c11.4 2.2 22.8 4.1 34.2 5.7"/>
				<path id="&lt;Path&gt;" class="s6" d="m425.9 1170.6c56.2-3.5 122.3-11.1 190.6-26.3"/>
				<path id="&lt;Path&gt;" class="s6" d="m647.6 1136.9c14.3-3.7 28.6-7.7 42.8-12.1"/>
				<path id="&lt;Path&gt;" class="s6" d="m390.5 614c0 0 14.8 5.2 38.7 12.5"/>
				<path id="&lt;Path&gt;" class="s6" d="m453.5 633.7c6.4 1.8 13.2 3.7 20.2 5.6"/>
				<path id="&lt;Path&gt;" class="s6" d="m490.8 643.7c39.4 10 84.2 19.2 124.9 22.4"/>
				<path id="&lt;Path&gt;" class="s6" d="m641.4 667.3q8 0.1 15.6-0.2"/>
				<path id="&lt;Path&gt;" class="s6" d="m-152.2 726.8c0 0 42.3 8.8 112.7 21.8"/>
				<path id="&lt;Path&gt;" class="s6" d="m3.7 756.4q17.7 3.2 36.9 6.5"/>
				<path id="&lt;Path&gt;" class="s6" d="m92.4 771.8c40.7 6.8 84.4 13.7 129.6 20.4"/>
				<path id="&lt;Path&gt;" class="s6" d="m271.2 799.3c137.1 19.1 279.9 34.3 402.9 36.4"/>
				<path id="&lt;Path&gt;" class="s6" d="m202.9 997.2c0 0 11.2 0.7 31.4 1.6"/>
				<path id="&lt;Path&gt;" class="s6" d="m260.9 999.9c23.5 0.8 52.7 1.6 85.8 2"/>
				<path id="&lt;Path&gt;" class="s6" d="m375.3 1002.1c64.2 0.3 137.8-1.1 210.2-6.3"/>
				<path id="&lt;Path&gt;" class="s6" d="m618.9 993.1q10.7-0.9 21.3-2"/>
				<path id="&lt;Path&gt;" class="s6" d="m674.5 987.2c20.8-2.6 41.2-5.6 60.9-9.1"/>
			</g>
			<g id="&lt;Group&gt;">
				<g id="&lt;Group&gt;">
					<path id="&lt;Compound Path&gt;" class="s7" d="m149.6 311l-2.1 41c-2.8 52.8 32.9 100 84.5 111.8l12.1 2.7c51.6 11.8 104.1-15.2 124.7-64l15.9-37.8c11.9-28.3 11.3-60.4-1.7-88.2-14.2-30.5-41.7-52.7-74.5-60.2l-25.9-5.9c-32.7-7.5-67.1 0.5-93.2 21.8-23.8 19.5-38.2 48.1-39.8 78.8zm184.3 86.5c0.7-2.8 3.5-4.5 6.3-3.9 2.8 0.6 4.5 3.4 3.9 6.3-0.6 2.8-3.4 4.5-6.3 3.9-2.8-0.7-4.5-3.5-3.9-6.3zm4.8-20.8c0.6-2.9 3.4-4.6 6.2-4 2.9 0.7 4.6 3.5 4 6.3-0.7 2.8-3.5 4.6-6.3 3.9-2.8-0.6-4.6-3.4-3.9-6.2zm4.8-20.9c0.6-2.8 3.4-4.6 6.2-3.9 2.8 0.6 4.6 3.4 3.9 6.2-0.6 2.8-3.4 4.6-6.2 3.9-2.8-0.6-4.6-3.4-3.9-6.2zm4.7-20.9c0.7-2.8 3.5-4.6 6.3-3.9 2.8 0.6 4.6 3.4 3.9 6.2-0.6 2.9-3.4 4.6-6.2 4-2.9-0.7-4.6-3.5-4-6.3zm4.8-20.9c0.6-2.8 3.4-4.5 6.3-3.9 2.8 0.7 4.5 3.5 3.9 6.3-0.7 2.8-3.5 4.5-6.3 3.9-2.8-0.6-4.5-3.4-3.9-6.3zm-44.2 99.7c0.6-2.8 3.4-4.5 6.2-3.9 2.8 0.7 4.6 3.5 3.9 6.3-0.6 2.8-3.4 4.5-6.2 3.9-2.8-0.6-4.6-3.4-3.9-6.3zm4.7-20.8c0.7-2.8 3.5-4.6 6.3-4 2.8 0.7 4.6 3.5 3.9 6.3-0.6 2.8-3.4 4.6-6.2 3.9-2.9-0.6-4.6-3.4-4-6.2zm4.8-20.9c0.6-2.8 3.4-4.6 6.3-3.9 2.8 0.6 4.5 3.4 3.9 6.2-0.7 2.8-3.5 4.6-6.3 4-2.8-0.7-4.5-3.5-3.9-6.3zm4.8-20.9c0.6-2.8 3.4-4.6 6.2-3.9 2.8 0.6 4.6 3.4 4 6.3-0.7 2.8-3.5 4.5-6.3 3.9-2.8-0.7-4.6-3.5-3.9-6.3zm4.7-20.8c0.7-2.9 3.5-4.6 6.3-4 2.8 0.7 4.6 3.5 3.9 6.3-0.6 2.8-3.4 4.6-6.2 3.9-2.8-0.6-4.6-3.4-4-6.2zm4.8-20.9c0.7-2.8 3.5-4.6 6.3-3.9 2.8 0.6 4.5 3.4 3.9 6.2-0.6 2.8-3.4 4.6-6.3 3.9-2.8-0.6-4.5-3.4-3.9-6.2zm4.8-20.9c0.6-2.8 3.4-4.6 6.2-3.9 2.9 0.6 4.6 3.4 4 6.2-0.7 2.9-3.5 4.6-6.3 4-2.8-0.7-4.6-3.5-3.9-6.3zm-49 120.6c0.6-2.8 3.4-4.6 6.2-4 2.8 0.7 4.6 3.5 4 6.3-0.7 2.8-3.5 4.6-6.3 3.9-2.8-0.6-4.6-3.4-3.9-6.2zm4.7-20.9c0.7-2.8 3.5-4.6 6.3-3.9 2.8 0.6 4.6 3.4 3.9 6.2-0.6 2.9-3.4 4.6-6.2 4-2.8-0.7-4.6-3.5-4-6.3zm4.8-20.9c0.7-2.8 3.5-4.5 6.3-3.9 2.8 0.6 4.5 3.5 3.9 6.3-0.6 2.8-3.4 4.5-6.3 3.9-2.8-0.6-4.5-3.4-3.9-6.3zm4.8-20.8c0.6-2.8 3.4-4.6 6.2-4 2.9 0.7 4.6 3.5 4 6.3-0.7 2.8-3.5 4.6-6.3 3.9-2.8-0.6-4.6-3.4-3.9-6.2zm4.8-20.9c0.6-2.8 3.4-4.6 6.2-3.9 2.8 0.6 4.6 3.4 3.9 6.2-0.6 2.8-3.4 4.6-6.2 4-2.8-0.7-4.6-3.5-3.9-6.3zm4.7-20.9c0.7-2.8 3.5-4.6 6.3-3.9 2.8 0.6 4.6 3.4 3.9 6.3-0.6 2.8-3.4 4.5-6.2 3.9-2.9-0.7-4.6-3.5-4-6.3zm4.8-20.8c0.6-2.9 3.4-4.6 6.3-4 2.8 0.7 4.5 3.5 3.9 6.3-0.7 2.8-3.5 4.6-6.3 3.9-2.8-0.6-4.5-3.4-3.9-6.2zm4.8-20.9c0.6-2.8 3.4-4.6 6.2-4 2.8 0.7 4.6 3.5 4 6.3-0.7 2.8-3.5 4.6-6.3 3.9-2.8-0.6-4.6-3.4-3.9-6.2zm-53.8 141.4c0.6-2.8 3.4-4.6 6.2-3.9 2.9 0.6 4.6 3.4 4 6.2-0.7 2.9-3.5 4.6-6.3 4-2.8-0.7-4.6-3.5-3.9-6.3zm4.8-20.9c0.6-2.8 3.4-4.5 6.2-3.9 2.8 0.7 4.6 3.5 4 6.3-0.7 2.8-3.5 4.6-6.3 3.9-2.8-0.6-4.6-3.4-3.9-6.3zm4.7-20.8c0.7-2.8 3.5-4.6 6.3-4 2.8 0.7 4.6 3.5 3.9 6.3-0.6 2.8-3.4 4.6-6.2 3.9-2.9-0.6-4.6-3.4-4-6.2zm4.8-20.9c0.6-2.8 3.4-4.6 6.3-3.9 2.8 0.6 4.5 3.4 3.9 6.2-0.6 2.8-3.5 4.6-6.3 4-2.8-0.7-4.5-3.5-3.9-6.3zm4.8-20.9c0.6-2.8 3.4-4.5 6.2-3.9 2.8 0.6 4.6 3.4 4 6.3-0.7 2.8-3.5 4.5-6.3 3.9-2.8-0.6-4.6-3.5-3.9-6.3zm4.7-20.8c0.7-2.9 3.5-4.6 6.3-4 2.8 0.7 4.6 3.5 3.9 6.3-0.6 2.8-3.4 4.6-6.2 3.9-2.8-0.6-4.6-3.4-4-6.2zm4.8-20.9c0.7-2.8 3.5-4.6 6.3-3.9 2.8 0.6 4.5 3.4 3.9 6.2-0.6 2.8-3.4 4.6-6.3 4-2.8-0.7-4.5-3.5-3.9-6.3zm4.8-20.9c0.6-2.8 3.4-4.6 6.2-3.9 2.9 0.6 4.6 3.4 4 6.2-0.7 2.9-3.5 4.6-6.3 4-2.8-0.7-4.6-3.5-3.9-6.3zm-53.8 141.5c0.6-2.9 3.5-4.6 6.3-4 2.8 0.7 4.5 3.5 3.9 6.3-0.6 2.8-3.5 4.6-6.3 3.9-2.8-0.6-4.5-3.4-3.9-6.2zm4.8-20.9c0.6-2.8 3.4-4.6 6.2-3.9 2.9 0.6 4.6 3.4 4 6.2-0.7 2.8-3.5 4.6-6.3 3.9-2.8-0.6-4.6-3.4-3.9-6.2zm4.7-20.9c0.7-2.8 3.5-4.6 6.3-3.9 2.8 0.6 4.6 3.4 3.9 6.2-0.6 2.9-3.4 4.6-6.2 4-2.8-0.7-4.6-3.5-4-6.3zm4.8-20.9c0.7-2.8 3.5-4.5 6.3-3.9 2.8 0.7 4.6 3.5 3.9 6.3-0.6 2.8-3.4 4.5-6.3 3.9-2.8-0.6-4.5-3.4-3.9-6.3zm4.8-20.8c0.6-2.8 3.4-4.6 6.2-4 2.9 0.7 4.6 3.5 4 6.3-0.7 2.8-3.5 4.6-6.3 3.9-2.8-0.6-4.6-3.4-3.9-6.2zm4.8-20.9c0.6-2.8 3.4-4.6 6.2-3.9 2.8 0.6 4.6 3.4 4 6.2-0.7 2.8-3.5 4.6-6.3 4-2.8-0.7-4.6-3.5-3.9-6.3zm4.7-20.9c0.7-2.8 3.5-4.5 6.3-3.9 2.8 0.6 4.6 3.4 3.9 6.3-0.6 2.8-3.4 4.5-6.2 3.9-2.9-0.7-4.6-3.5-4-6.3zm4.8-20.8c0.6-2.9 3.4-4.6 6.3-4 2.8 0.7 4.5 3.5 3.9 6.3-0.7 2.8-3.5 4.6-6.3 3.9-2.8-0.6-4.5-3.4-3.9-6.2zm-53.8 141.4c0.7-2.8 3.5-4.6 6.3-3.9 2.8 0.6 4.6 3.4 3.9 6.2-0.6 2.8-3.4 4.6-6.2 4-2.9-0.7-4.6-3.5-4-6.3zm4.8-20.9c0.6-2.8 3.4-4.5 6.3-3.9 2.8 0.6 4.5 3.4 3.9 6.3-0.7 2.8-3.5 4.5-6.3 3.9-2.8-0.7-4.6-3.5-3.9-6.3zm4.8-20.8c0.6-2.9 3.4-4.6 6.2-4 2.8 0.7 4.6 3.5 4 6.3-0.7 2.8-3.5 4.6-6.3 3.9-2.8-0.6-4.6-3.4-3.9-6.2zm4.7-20.9c0.7-2.8 3.5-4.6 6.3-3.9 2.8 0.6 4.6 3.4 3.9 6.2-0.6 2.8-3.4 4.6-6.2 3.9-2.8-0.6-4.6-3.4-4-6.2zm4.8-20.9c0.6-2.8 3.5-4.6 6.3-3.9 2.8 0.6 4.5 3.4 3.9 6.2-0.6 2.9-3.5 4.6-6.3 4-2.8-0.7-4.5-3.5-3.9-6.3zm4.8-20.9c0.6-2.8 3.4-4.5 6.2-3.9 2.9 0.7 4.6 3.5 4 6.3-0.7 2.8-3.5 4.5-6.3 3.9-2.8-0.6-4.6-3.4-3.9-6.3zm4.7-20.8c0.7-2.8 3.5-4.6 6.3-4 2.8 0.7 4.6 3.5 3.9 6.3-0.6 2.8-3.4 4.6-6.2 3.9-2.8-0.6-4.6-3.4-4-6.2zm4.8-20.9c0.7-2.8 3.5-4.6 6.3-3.9 2.8 0.6 4.6 3.4 3.9 6.2-0.6 2.8-3.4 4.6-6.3 4-2.8-0.7-4.5-3.5-3.9-6.3zm-53.8 141.4c0.7-2.8 3.5-4.5 6.3-3.9 2.8 0.7 4.6 3.5 3.9 6.3-0.6 2.8-3.4 4.5-6.2 3.9-2.8-0.6-4.6-3.4-4-6.3zm4.8-20.8c0.7-2.8 3.5-4.6 6.3-4 2.8 0.7 4.5 3.5 3.9 6.3-0.6 2.8-3.4 4.6-6.3 3.9-2.8-0.6-4.5-3.4-3.9-6.2zm4.8-20.9c0.6-2.8 3.4-4.6 6.2-3.9 2.9 0.6 4.6 3.4 4 6.2-0.7 2.8-3.5 4.6-6.3 4-2.8-0.7-4.6-3.5-3.9-6.3zm4.7-20.9c0.7-2.8 3.5-4.5 6.3-3.9 2.8 0.6 4.6 3.4 3.9 6.3-0.6 2.8-3.4 4.5-6.2 3.9-2.8-0.7-4.6-3.5-4-6.3zm4.8-20.8c0.7-2.9 3.5-4.6 6.3-4 2.8 0.7 4.6 3.5 3.9 6.3-0.6 2.8-3.4 4.6-6.2 3.9-2.9-0.6-4.6-3.4-4-6.2zm4.8-20.9c0.6-2.8 3.4-4.6 6.3-3.9 2.8 0.6 4.5 3.4 3.9 6.2-0.7 2.8-3.5 4.6-6.3 3.9-2.8-0.6-4.6-3.4-3.9-6.2zm4.8-20.9c0.6-2.8 3.4-4.6 6.2-3.9 2.8 0.6 4.6 3.4 4 6.2-0.7 2.9-3.5 4.6-6.3 4-2.8-0.7-4.6-3.5-3.9-6.3zm4.7-20.9c0.7-2.8 3.5-4.5 6.3-3.9 2.8 0.7 4.6 3.5 3.9 6.3-0.6 2.8-3.4 4.5-6.2 3.9-2.8-0.6-4.6-3.4-4-6.3zm-53.7 141.5c0.6-2.8 3.4-4.6 6.2-4 2.8 0.7 4.6 3.5 3.9 6.3-0.6 2.8-3.4 4.6-6.2 3.9-2.8-0.6-4.6-3.4-3.9-6.2zm4.7-20.9c0.7-2.8 3.5-4.6 6.3-3.9 2.8 0.6 4.6 3.4 3.9 6.2-0.6 2.9-3.4 4.6-6.2 4-2.9-0.7-4.6-3.5-4-6.3zm4.8-20.9c0.6-2.8 3.4-4.5 6.3-3.9 2.8 0.7 4.5 3.5 3.9 6.3-0.7 2.8-3.5 4.5-6.3 3.9-2.8-0.6-4.5-3.4-3.9-6.3zm4.8-20.8c0.6-2.8 3.4-4.6 6.2-4 2.8 0.7 4.6 3.5 4 6.3-0.7 2.8-3.5 4.6-6.3 3.9-2.8-0.6-4.6-3.4-3.9-6.2zm4.7-20.9c0.7-2.8 3.5-4.6 6.3-3.9 2.8 0.6 4.6 3.4 3.9 6.2-0.6 2.8-3.4 4.6-6.2 4-2.8-0.7-4.6-3.5-4-6.3zm4.8-20.9c0.7-2.8 3.5-4.6 6.3-3.9 2.8 0.6 4.5 3.4 3.9 6.3-0.6 2.8-3.4 4.5-6.3 3.9-2.8-0.7-4.5-3.5-3.9-6.3zm4.8-20.8c0.6-2.9 3.4-4.6 6.2-4 2.9 0.7 4.6 3.5 4 6.3-0.7 2.8-3.5 4.6-6.3 3.9-2.8-0.6-4.6-3.4-3.9-6.2zm-44.3 99.6c0.7-2.8 3.5-4.5 6.3-3.9 2.8 0.7 4.6 3.5 3.9 6.3-0.6 2.8-3.4 4.6-6.2 3.9-2.8-0.6-4.6-3.4-4-6.3zm4.8-20.8c0.7-2.8 3.5-4.6 6.3-4 2.8 0.7 4.5 3.5 3.9 6.3-0.6 2.8-3.4 4.6-6.3 3.9-2.8-0.6-4.5-3.4-3.9-6.2zm4.8-20.9c0.6-2.8 3.4-4.6 6.2-3.9 2.9 0.6 4.6 3.4 4 6.2-0.7 2.9-3.5 4.6-6.3 4-2.8-0.7-4.6-3.5-3.9-6.3zm4.8-20.9c0.6-2.8 3.4-4.5 6.2-3.9 2.8 0.6 4.6 3.5 3.9 6.3-0.6 2.8-3.4 4.5-6.2 3.9-2.8-0.6-4.6-3.4-3.9-6.3zm4.7-20.8c0.7-2.9 3.5-4.6 6.3-4 2.8 0.7 4.6 3.5 3.9 6.3-0.6 2.8-3.4 4.6-6.2 3.9-2.9-0.6-4.6-3.4-4-6.2z"/>
					<g id="&lt;Group&gt;">
						<path id="&lt;Compound Path&gt;" class="s8" d="m139.2 351.5l2.1-41c1.7-32.9 17.3-63.8 42.9-84.7 28.2-23.1 64.8-31.6 100.3-23.5l25.9 5.9c35.5 8.1 64.7 31.7 80.1 64.7 14 30 14.6 64.6 1.8 95l-15.9 37.9c-22.1 52.6-78.5 81.5-134.2 68.8l-12.1-2.7c-55.6-12.8-93.9-63.4-90.9-120.4zm141.6-133c-30.5-7-61.9 0.4-86.1 20.1-21.9 18-35.4 44.5-36.8 72.8l-2.1 41c-2.6 48.9 30.3 92.3 78 103.3l12.1 2.7c47.8 10.9 96.2-13.9 115.2-59.1l15.9-37.8c11-26.1 10.4-55.9-1.6-81.5-13.2-28.4-38.2-48.6-68.7-55.6z"/>
					</g>
					<g id="&lt;Group&gt;">
						<g id="&lt;Group&gt;">
							<path id="&lt;Path&gt;" class="s8" d="m201.9 522.1l16.2 3.7c10.7-46.9-44.6-111.7-47-114.4l-12.5 10.8c14.5 16.9 50.7 67.7 43.3 99.9z"/>
						</g>
						<g id="&lt;Group&gt;">
							<path id="&lt;Path&gt;" class="s8" d="m229.6 528.5l16.2 3.7c7.4-32.2 62-62.3 82.4-71.2l-6.6-15.2c-3.3 1.4-81.3 35.7-92 82.7z"/>
						</g>
					</g>
					<path id="&lt;Path&gt;" class="s7" d="m171.4 656.6l43.4 9.9c3.2 0.7 6.3-1.2 7-4.4l29.3-128.2c0.7-3.1-1.2-6.2-4.4-6.9l-43.4-10c-3.1-0.7-6.2 1.3-7 4.4l-29.3 128.2c-0.7 3.1 1.3 6.3 4.4 7z"/>
					<path id="&lt;Path&gt;" class="s9" d="m176.9 451.2l4.1-3.8c8.8-8 10.1-21.5 2.8-31-6.7-8.9-14.4-20.1-18.9-30.2-9.3-20.9-27.7-28.3-27.7-28.3 0 0-7.6 46.8 39.7 93.3z"/>
					<path id="&lt;Path&gt;" class="s9" d="m299.2 479.1l-2.1-5.1c-4.5-11.1 0.3-23.8 11-29.2 9.9-5.1 21.6-11.8 30.1-19 17.4-14.8 37.2-13.4 37.2-13.4 0 0-13.5 45.4-76.2 66.7z"/>
					<path id="&lt;Path&gt;" class="s9" d="m298.4 200.9c40.5 9.2 53.6 23.5 53.6 23.5 0 0-27.8 20-61.8 12.3-33.9-7.8-50.3-38-50.3-38 0 0 18-7.1 58.5 2.2z"/>
				</g>
				<path id="&lt;Path&gt;" class="s10" d="m636.4 628.3c0 0-122.3 105.5-173.4 113.5-51.1 7.9-181.7-113.5-181.7-113.5l-71.5 110.1c0 0 120.6 132.4 231 125.6 110.2-6.8 233.7-175.5 233.7-175.5z"/>
				<path id="&lt;Path&gt;" class="s7" d="m1057.9 940.1c24.4 89.7-15.3 203.2-15.3 203.2l-197.7 11.4-330.3-15.9c0 0 161.5-106.7 229.5-170.3 68-63.6 313.8-28.4 313.8-28.4z"/>
				<path id="&lt;Path&gt;" class="s11" d="m796.2 1171.7l11.9-72.7-78.9 72.7z"/>
				<path id="&lt;Path&gt;" class="s12" d="m1002.8 937.8c0 0 40.9 96.5-21.5 229.4h24.5c0 0 60-124.7 17.5-236.8z"/>
				<path id="&lt;Path&gt;" class="s9" d="m1057.9 940.1c0 0-195.9 62.4-324.1 34.1 0 0-20.6-96.6-92.7-184-71.4-86.7-103.7-178.7 51.6-180.5q1.8 0 3.6 0c54-0.2 98.8 7 134.5 16.9 32.5 9.1 57.4 20.5 74.4 30.8 80.6 48.8 152.7 282.7 152.7 282.7z"/>
				<path id="&lt;Path&gt;" class="s13" d="m709.9 709.6c-59-15.9-49.6-78.8-49.6-78.8 0 0 13.2-10 32.4-21.1q1.8 0 3.6 0c54-0.2 98.8 7 134.5 16.9 7.6 50.8-70.1 96.7-120.9 83z"/>
				<path id="&lt;Path&gt;" class="s14" d="m670.2 616.5c0 0-9.9 97.6 72.5 82.9 93.3-16.7 91-107.9 51.2-111.3-39.7-3.4-123.7 28.4-123.7 28.4z"/>
				<g id="&lt;Group&gt;">
					<path id="&lt;Path&gt;" class="s10" d="m288.2 740.5c-23.4 56.8-105.2 15.7-137.2-18.1-38.4-40.8-22.8-75.3-22.8-75.3 0 0-7.9-22 9.9-50.1 0 0-6.2-4.5-3.9-25.6 3.7-34.7 49.4-32.1 66.2-7.6 0 0-23-20.6-4.9-43.5 8.6-10.7 29.8 15.1 59.4 16.5 17.5 0.8 57.2 66.2 62.3 112.9 5.1 46.7-29 90.8-29 90.8z"/>
					<path id="&lt;Path&gt;" class="s10" d="m140 692.9c0 0-17.6 20 4 44.6 19.6 22.4 75 33.4 64.4-3.8-10.7-37.2-68.4-40.8-68.4-40.8z"/>
					<path id="&lt;Path&gt;" class="s15" d="m247.9 766.8c0 0 36.6 3.3 43.1-39"/>
					<path id="&lt;Path&gt;" class="s15" d="m197.1 559.8c0 0 38.6 27.2 49.2 48.7 10.6 21.5-9.1 37.1-9.1 37.1 0 0 11.8 22-8.7 38.8 0 0 15.2 21.8-6.8 37.2 0 0 19 22.8-20.7 35.8"/>
					<path id="&lt;Path&gt;" class="s15" d="m145.5 600.1c0 0 46.3 33.4 91.7 45.5"/>
					<path id="&lt;Path&gt;" class="s15" d="m142.2 659c0 0 53.5 24.4 86.3 25.4"/>
					<path id="&lt;Path&gt;" class="s15" d="m149.2 711.2c0 0 26.8 17.3 72.5 10.4"/>
					<path id="&lt;Path&gt;" class="s15" d="m226.5 584.1c3.1 3 10.1 7.7 23.7-1.6"/>
					<path id="&lt;Path&gt;" class="s15" d="m240.5 661.4c0 0-6.7 16.8 25.3 33.4"/>
				</g>
				<path id="&lt;Path&gt;" class="s13" d="m632.3 613.2c-34.6 12.1-117.7 87.7-117.7 87.7 0 0-2 95 67.1 115.4l57.4-28.6-10.7-13.6c0 0-10.1-72 36.3-104.6l13.3-59.3c0 0-8.2-10.1-45.7 3z"/>
				<g id="&lt;Group&gt;">
					<path id="&lt;Path&gt;" class="s10" d="m632.7 558c0 0-15.8-23.2-33.9 2.3-18.2 25.5 22.5 79.7 45.8 58.5 23.2-21.2-11.9-60.8-11.9-60.8z"/>
					<path id="&lt;Path&gt;" class="s16" d="m600.8 573.1c0 0 4.8-13.3 18.3-14.2 13.6-0.9 21 48.5 8.5 49.3-12.5 0.9-21.7-22.3-7.7-29"/>
					<path id="&lt;Path&gt;" class="s10" d="m829 543.4c0 0 17.1-22.2 33.8 4.3 16.7 26.5-27.2 78.2-49.2 55.7-22-22.6 15.4-60 15.4-60z"/>
					<path id="&lt;Path&gt;" class="s16" d="m860.1 560.3c0 0-4.1-13.5-17.6-15.2-13.5-1.7-23.7 47.2-11.3 48.8 12.4 1.5 22.9-21.1 9.3-28.6"/>
					<path id="&lt;Path&gt;" class="s10" d="m750.1 447.2c-88.3-14.9-141.5 39.7-121 139.5 27.1 131.7 169.9 131.8 197.4 12.9 15.9-69.2 8-138.1-76.4-152.4z"/>
					<path id="&lt;Path&gt;" class="s7" d="m719.1 480.7c0 0 64.4-11.3 89.7 5.6 25.3 16.9 22.8 84.2 22.8 84.2 0 0 31.7-162-111.3-144.6-143 17.3-88.8 170.8-88.8 170.8l0.8-9.2c0 0-31.9-127.6 86.8-106.8z"/>
					<path id="&lt;Path&gt;" class="s7" d="m632.3 587.5c0 0-9.7-27.5 5.5-43.3 0 0-11.4-47.4 19-56.5 30.3-9.1 33.6-2.1 66.9-2.5 33.2-0.3 45.8-12.5 72.2-4.5 26.3 7.9 27.5 57.2 23.8 55.1-3.7-2.2 12.6 11.1 6.5 47.7l3.8 1.6c0 0 11.7-24.1 7.9-44.2 0 0 18.5-5.6 14.4-23.3-4-17.7-11.4-19.8-11.4-19.8 0 0 10-13.6 3.8-30.4-6.2-16.8-21.9-10.6-21.9-10.6 0 0 7.6-23.3-14.4-35.2-21.9-11.9-35 0.7-35 0.7 0 0-0.6-22.4-35.5-22.2-34.9 0.1-42.9 22.6-42.9 22.6 0 0-16.5-19.3-37.8-4.8-21.3 14.4-13.3 32-13.3 32 0 0-23.9-4.7-32.5 22.3-8.5 26.9 3.1 38.7 3.1 38.7 0 0-14.6 1.6-12.5 26.4 2 24.9 19.1 27.6 19.1 27.6 0 0 0.1 16.9 9.6 29.4"/>
					<path id="&lt;Path&gt;" class="s7" d="m747.6 558.2l-14.4-8c0 0 39.6-42.1 70.3-13.1l5 9.8c0 0-26.5-21.1-60.9 11.3z"/>
					<path id="&lt;Path&gt;" class="s7" d="m786.1 569.4c0.4 6.3-2.7 11.6-7 11.9-4.3 0.3-8.2-4.5-8.6-10.8-0.4-6.2 2.7-11.5 7-11.8 4.3-0.3 8.1 4.5 8.6 10.7z"/>
					<path id="&lt;Path&gt;" class="s7" d="m717.7 568l-4.1-11.6c0 0-44.4-22.4-66.5-12.1l-4.1 10.2c0 0 19.2-4.7 74.7 13.5z"/>
					<path id="&lt;Path&gt;" class="s7" d="m678.9 575.8c0.2 6.2 3.8 11.2 8.1 11.1 4.3-0.1 7.7-5.3 7.5-11.6-0.2-6.2-3.8-11.2-8.1-11.1-4.3 0.1-7.7 5.3-7.5 11.6z"/>
					<path id="&lt;Path&gt;" class="s16" d="m717.3 571.3l4.5 13.8c0 0-16 7.2-14.3 24 1.8 16.8 25.6 12.7 25.6 12.7"/>
					<path id="&lt;Path&gt;" class="s14" d="m716.6 644.7c0 0 42.7-16.5 50.5-10.3 7.8 6.1-15.9 16.9-24 18.1-8.2 1.3-26.5-7.8-26.5-7.8z"/>
				</g>
				<path id="&lt;Path&gt;" class="s17" d="m634.5 711.4c0 0-13.8 39.5-6.1 62.7l10.7 13.6"/>
				<path id="&lt;Path&gt;" class="s18" d="m680.4 608.9c0 8.8-7.1 15.9-15.9 15.9-8.8 0-15.9-7.1-15.9-15.9 0-8.7 7.1-15.8 15.9-15.8 8.8 0 15.9 7.1 15.9 15.8z"/>
				<path id="&lt;Path&gt;" class="s18" d="m811.1 601.9c0 8.7-7.1 15.8-15.9 15.8-8.8 0-15.9-7.1-15.9-15.8 0-8.8 7.1-15.9 15.9-15.9 8.8 0 15.9 7.1 15.9 15.9z"/>
				<g id="&lt;Group&gt;">
					<path id="&lt;Path&gt;" class="s10" d="m1317.9 888.9c0 0-4.3-43.7 46.8-77.4 51-33.7 78.7-71.7 81.1-90.7 2.4-19 26-16.9 36.5 11.4 14.2 38.5-41.3 73.4-36.9 92.8 4.4 19.5 68.6 0.6 102.9-12.9 34.4-13.6 73.9-15.1 80.4 8.9 6.6 24 0.8 34.5-16.5 30.1-17.3-4.4-68.2 14.4-80.4 18.5-12.3 4.1 48.9 14.7 73 26.6 24.1 11.8 7.8 42.8-6.5 45.6-14.2 2.8-26.2-7.1-26.2-7.1 0 0-19.2 14.2-45.3 22.1-26.1 7.8-76.8 51.7-121.6 38.3-44.9-13.4-83.5-67.7-87.3-106.2z"/>
					<path id="&lt;Path&gt;" class="s15" d="m1572.1 934.7c18-11.9 7.5-30.3-13.7-34.6-17.2-3.5-50.4 16.1-59.5 13.8"/>
					<path id="&lt;Path&gt;" class="s15" d="m1445.4 825c-5.3 15.5-5.1 38.1-46.2 55.3"/>
					<path id="&lt;Path&gt;" class="s10" d="m1471.8 942.7c0 0 8.9-21.7 30.8-20.8 21.8 1 17.5 19.1 9.8 41.1-7.6 21.9-69.9 41-94.1 34.5"/>
					<path id="&lt;Path&gt;" class="s15" d="m1471.8 942.7c0 0 8.9-21.7 30.8-20.8 21.8 1 17.5 19.1 9.8 41.1-7.6 21.9-69.9 41-94.1 34.5"/>
				</g>
				<path id="&lt;Path&gt;" class="s12" d="m1051.2 718.3c0 0 14.2 102.9-43.4 136.2 0 0-31.7-34-27.9-84.3 3.7-50.3 71.3-51.9 71.3-51.9z"/>
				<path id="&lt;Path&gt;" class="s10" d="m929.5 666.2c0 0 110.3 67.9 159.1 94.1 32.2 17.3 287.3 74.6 287.3 74.6l6.1 135.7c0 0-266.6-78.1-337.2-111.3-91.9-43.2-162-94.5-162-94.5z"/>
				<path id="&lt;Path&gt;" class="s13" d="m820.9 657.4c0 0 34.3 101.4 82.2 132.5 48 31.1 104.7 64.6 104.7 64.6 0 0-14.2-113.4 43.4-136.2 0 0-83.4-63.6-124.5-82.9-41.2-19.3-99.4-9.7-99.4-9.7z"/>
				<path id="&lt;Path&gt;" class="s17" d="m860 741c0 0 11.4 27.5 36.6 44.1 25.2 16.7 78.6 49.8 78.6 49.8"/>
			</g>
		</g>
	</g>
</svg>