<?xml version="1.0" encoding="UTF-8"?>
<svg xmlns="http://www.w3.org/2000/svg" xmlns:xlink="http://www.w3.org/1999/xlink" width="2001" height="2001" viewBox="0 0 2001 2001">

<path fill-rule="evenodd" fill="rgb(0%, 0%, 0%)" fill-opacity="1" d="M 1000 437.359375 C 1314.019531 437.359375 1582.691406 682.410156 1582.691406 1001 C 1582.691406 1319.59375 1314.019531 1564.640625 1000 1564.640625 C 685.980469 1564.640625 417.3125 1319.59375 417.3125 1001 C 417.3125 682.410156 685.980469 437.359375 1000 437.359375 "/>
<path fill-rule="evenodd" fill="rgb(100%, 100%, 100%)" fill-opacity="1" d="M 1000 471.398438 C 1303.011719 471.398438 1548.640625 708.511719 1548.640625 1001.003906 C 1548.640625 1293.492188 1303.011719 1530.605469 1000 1530.605469 C 696.996094 1530.605469 451.359375 1293.492188 451.359375 1001.003906 C 451.359375 708.511719 696.996094 471.398438 1000 471.398438 "/>
<path fill-rule="evenodd" fill="rgb(0%, 0%, 0%)" fill-opacity="1" d="M 844.238281 921.390625 C 880.558594 921.390625 910.003906 947.738281 910.003906 980.238281 C 910.003906 1012.734375 880.558594 1039.078125 844.238281 1039.078125 C 807.914062 1039.078125 778.46875 1012.734375 778.46875 980.238281 C 778.46875 947.738281 807.914062 921.390625 844.238281 921.390625 "/>
<path fill-rule="evenodd" fill="rgb(0%, 0%, 0%)" fill-opacity="1" d="M 1180.859375 916.199219 C 1216.710938 916.199219 1245.769531 944.480469 1245.769531 979.371094 C 1245.769531 1014.257812 1216.710938 1042.539062 1180.859375 1042.539062 C 1145.019531 1042.539062 1115.960938 1014.257812 1115.960938 979.371094 C 1115.960938 944.480469 1145.019531 916.199219 1180.859375 916.199219 "/>
<path fill-rule="evenodd" fill="rgb(0%, 0%, 0%)" fill-opacity="1" d="M 1443.070312 1035.617188 C 1457.410156 1035.617188 1469.03125 1060.410156 1469.03125 1091.003906 C 1469.03125 1121.589844 1457.410156 1146.382812 1443.070312 1146.382812 C 1428.730469 1146.382812 1417.109375 1121.589844 1417.109375 1091.003906 C 1417.109375 1060.410156 1428.730469 1035.617188 1443.070312 1035.617188 "/>
<path fill-rule="evenodd" fill="rgb(0%, 0%, 0%)" fill-opacity="1" d="M 549.765625 1061.726562 C 568.40625 1061.726562 583.515625 1087.296875 583.515625 1118.839844 C 583.515625 1150.382812 568.40625 1175.953125 549.765625 1175.953125 C 531.128906 1175.953125 516.019531 1150.382812 516.019531 1118.839844 C 516.019531 1087.296875 531.128906 1061.726562 549.765625 1061.726562 "/>
<path fill-rule="evenodd" fill="rgb(0%, 0%, 0%)" fill-opacity="1" d="M 739.046875 724.871094 C 757.917969 738 754.015625 772.308594 730.324219 801.511719 C 706.636719 830.710938 672.132812 843.738281 653.257812 830.609375 C 634.382812 817.480469 638.289062 783.171875 661.976562 753.96875 C 685.667969 724.769531 720.171875 711.738281 739.046875 724.871094 "/>
<path fill-rule="evenodd" fill="rgb(0%, 0%, 0%)" fill-opacity="1" d="M 778.863281 536.601562 C 807.390625 519.25 836.066406 514.308594 842.910156 525.558594 C 849.75 536.808594 832.171875 560 803.644531 577.351562 C 775.113281 594.699219 746.4375 599.640625 739.597656 588.390625 C 732.753906 577.140625 750.335938 553.949219 778.863281 536.601562 "/>
<path fill-rule="evenodd" fill="rgb(0%, 0%, 0%)" fill-opacity="1" d="M 1257.390625 728.328125 C 1238.511719 741.460938 1242.421875 775.761719 1266.109375 804.96875 C 1289.800781 834.171875 1324.300781 847.191406 1343.171875 834.070312 C 1362.050781 820.941406 1358.140625 786.628906 1334.449219 757.429688 C 1310.769531 728.230469 1276.261719 715.199219 1257.390625 728.328125 "/>
<path fill-rule="evenodd" fill="rgb(0%, 0%, 0%)" fill-opacity="1" d="M 1006.929688 616.78125 C 1043.25 616.78125 1072.691406 643.128906 1072.691406 675.628906 C 1072.691406 708.121094 1043.25 734.46875 1006.929688 734.46875 C 970.601562 734.46875 941.15625 708.121094 941.15625 675.628906 C 941.15625 643.128906 970.601562 616.78125 1006.929688 616.78125 "/>
<path fill-rule="evenodd" fill="rgb(0%, 0%, 0%)" fill-opacity="1" d="M 1232.058594 538.339844 C 1205.828125 522.390625 1179.460938 517.839844 1173.171875 528.191406 C 1166.878906 538.53125 1183.039062 559.851562 1209.269531 575.800781 C 1235.5 591.75 1261.871094 596.300781 1268.160156 585.949219 C 1274.449219 575.609375 1258.289062 554.289062 1232.058594 538.339844 "/>
<path fill-rule="evenodd" fill="rgb(0%, 0%, 0%)" fill-opacity="1" d="M 1487.25 804.621094 C 1476.210938 775.96875 1460.179688 755.53125 1451.429688 758.96875 C 1442.679688 762.410156 1444.53125 788.421875 1455.570312 817.058594 C 1466.601562 845.710938 1482.640625 866.140625 1491.390625 862.710938 C 1500.128906 859.269531 1498.28125 833.261719 1487.25 804.621094 "/>
<path fill-rule="evenodd" fill="rgb(0%, 0%, 0%)" fill-opacity="1" d="M 518.816406 803.320312 C 529.847656 774.671875 545.886719 754.238281 554.636719 757.679688 C 563.382812 761.109375 561.527344 787.121094 550.496094 815.769531 C 539.460938 844.421875 523.421875 864.851562 514.675781 861.410156 C 505.929688 857.980469 507.78125 831.96875 518.816406 803.320312 "/>
<path fill-rule="evenodd" fill="rgb(0%, 0%, 0%)" fill-opacity="1" d="M 758.433594 1376.753906 C 777.308594 1363.628906 773.402344 1329.316406 749.714844 1300.117188 C 726.027344 1270.917969 691.519531 1257.886719 672.644531 1271.015625 C 653.773438 1284.140625 657.675781 1318.449219 681.367188 1347.648438 C 705.054688 1376.851562 739.558594 1389.878906 758.433594 1376.753906 "/>
<path fill-rule="evenodd" fill="rgb(0%, 0%, 0%)" fill-opacity="1" d="M 1276.78125 1373.296875 C 1257.898438 1360.167969 1261.800781 1325.859375 1285.5 1296.65625 C 1309.179688 1267.457031 1343.691406 1254.429688 1362.558594 1267.554688 C 1381.441406 1280.679688 1377.53125 1314.988281 1353.839844 1344.1875 C 1330.148438 1373.390625 1295.648438 1386.421875 1276.78125 1373.296875 "/>
<path fill-rule="evenodd" fill="rgb(0%, 0%, 0%)" fill-opacity="1" d="M 1044.96875 1298.15625 C 1081.289062 1298.15625 1110.738281 1271.8125 1110.738281 1239.3125 C 1110.738281 1206.8125 1081.289062 1180.46875 1044.96875 1180.46875 C 1008.640625 1180.46875 979.199219 1206.8125 979.199219 1239.3125 C 979.199219 1271.8125 1008.640625 1298.15625 1044.96875 1298.15625 "/>
<path fill-rule="evenodd" fill="rgb(0%, 0%, 0%)" fill-opacity="1" d="M 1009.851562 1454.480469 C 1040.519531 1455.796875 1065 1464.476562 1064.539062 1473.863281 C 1064.070312 1483.246094 1038.828125 1489.789062 1008.160156 1488.476562 C 977.488281 1487.160156 953.007812 1478.480469 953.472656 1469.09375 C 953.9375 1459.710938 979.179688 1453.164062 1009.851562 1454.480469 "/>
</svg>
